<?xml version="1.0" encoding="UTF-8" standalone="no"?>
<svg
   xmlns:dc="http://purl.org/dc/elements/1.1/"
   xmlns:cc="http://creativecommons.org/ns#"
   xmlns:rdf="http://www.w3.org/1999/02/22-rdf-syntax-ns#"
   xmlns:svg="http://www.w3.org/2000/svg"
   xmlns="http://www.w3.org/2000/svg"
   xmlns:sodipodi="http://sodipodi.sourceforge.net/DTD/sodipodi-0.dtd"
   xmlns:inkscape="http://www.inkscape.org/namespaces/inkscape"
   version="1.1"
   viewBox="0 0 752 613.12089"
   height="613.12089"
   width="752"
   data-name="Layer 1"
   id="fb137f74-5dac-4b98-b1c7-12f1e4e536de"
   sodipodi:docname="sulinpc.svg"
   inkscape:version="0.92.4 5da689c313, 2019-01-14">
  <sodipodi:namedview
     pagecolor="#ffffff"
     bordercolor="#666666"
     borderopacity="1"
     objecttolerance="10"
     gridtolerance="10"
     guidetolerance="10"
     inkscape:pageopacity="0"
     inkscape:pageshadow="2"
     inkscape:window-width="1366"
     inkscape:window-height="714"
     id="namedview39"
     showgrid="false"
     inkscape:zoom="0.8405"
     inkscape:cx="340.18798"
     inkscape:cy="306.56046"
     inkscape:window-x="0"
     inkscape:window-y="26"
     inkscape:window-maximized="1"
     inkscape:current-layer="fb137f74-5dac-4b98-b1c7-12f1e4e536de" />
  <metadata
     id="metadata57">
    <rdf:RDF>
      <cc:Work
         rdf:about="">
        <dc:format>image/svg+xml</dc:format>
        <dc:type
           rdf:resource="http://purl.org/dc/dcmitype/StillImage" />
        <dc:title>preservation</dc:title>
      </cc:Work>
    </rdf:RDF>
  </metadata>
  <defs
     id="defs55" />
  <title
     id="title2">preservation</title>
  <path
     style="fill:#77216f"
     id="path4"
     fill="#3f3d56"
     transform="translate(-224 -143.43955)"
     d="M936.06709,644.81582c13.15168,46.82-113.43889,153.7908-336.16167,94.07509-179.32334-48.07958-336.16167-68.44335-336.16167-94.07509s150.50471,1.25433,336.16167,1.25433S929.13548,620.13917,936.06709,644.81582Z" />
  <path
     style="fill:#ddcad4"
     id="path8"
     fill="#3f3d56"
     transform="translate(-224 -143.43955)"
     d="M936.06709,644.81582c13.15168,46.82-113.43889,106.12609-336.16167,46.41038-179.32334-48.07959-336.16167-20.77864-336.16167-46.41038s150.50471-46.41038,336.16167-46.41038S929.13548,620.13917,936.06709,644.81582Z" />
  <ellipse
     id="ellipse10"
     opacity="0.1"
     ry="9"
     rx="26"
     cy="526"
     cx="484" />
  <ellipse
     id="ellipse12"
     opacity="0.1"
     ry="9"
     rx="26"
     cy="526"
     cx="590" />
  <ellipse
     id="ellipse14"
     opacity="0.1"
     ry="23"
     rx="85"
     cy="486"
     cx="376" />
  <path
     style="fill:#e4d4dd"
     id="path16"
     fill="#3f3d56"
     transform="translate(-224 -143.43955)"
     d="M976,559.43955v-416H224v416H571v55.60938c-17.33118,2.07513-29,5.9497-29,10.39062,0,6.62738,25.96747,12,58,12s58-5.37262,58-12c0-4.44092-11.66882-8.31549-29-10.39062V559.43955Z" />
  <g
     id="g1167">
    <rect
       x="39"
       y="14.57447"
       width="674"
       height="372.85107"
       id="rect18"
       style="fill:#000000" />
    <path
       d="m 937,158.43955 c 0,0 -280,29 -331,141 -51,112 -343,231 -343,231 h 674 z"
       transform="translate(-224,-143.43955)"
       id="path20"
       style="opacity:0.1;fill:#ffffff"
       inkscape:connector-curvature="0" />
    <path
       style="fill:#9c27b0"
       d="m 675.121,343.02285 v 4.14415 c 0,0 -2.96013,1.18405 -2.96013,5.92026 0,4.73621 -2.36811,22.497 -2.36811,22.497 0,0 4.14419,3.55216 7.69634,2.36811 a 14.4625,14.4625 0 0 0 5.32824,-2.96014 l 0.592,-18.35281 -2.36811,-4.73621 v -8.28837 z"
       transform="translate(-224,-143.43955)"
       id="path24"
       inkscape:connector-curvature="0" />
    <path
       style="fill:#9c27b0"
       d="m 788.37816,178.43955 c 0,0 -10.29611,1.18406 -10.29611,5.92026 0,4.7362 -8.23688,22.497 -8.23688,22.497 0,0 14.41455,3.55216 26.76988,2.36811 12.35533,-1.18405 18.533,-2.96013 18.533,-2.96013 l 2.05922,-18.35282 -8.23689,-4.73621 z"
       transform="translate(-224,-143.43955)"
       id="path26"
       inkscape:connector-curvature="0" />
    <path
       style="fill:#ffb8b8"
       d="m 789.382,219.88139 v -11.2485 c 0,0 -12.43255,-24.8651 -2.3681,-24.8651 10.06445,0 11.2485,22.497 11.2485,22.497 v 15.9847 z"
       transform="translate(-224,-143.43955)"
       id="path28"
       inkscape:connector-curvature="0" />
    <path
       style="fill:#ffb8b8"
       d="m 682.81731,337.69461 c 0,0 -6.51229,-3.55216 -7.69634,0 -1.18405,3.55216 -4.73621,11.2485 0,11.84053 4.73621,0.59203 9.47242,-3.55216 9.47242,-3.55216 z"
       transform="translate(-224,-143.43955)"
       id="path30"
       inkscape:connector-curvature="0" />
    <path
       style="fill:#2f2e41"
       d="m 714.86866,361.67553 c 0,0 -3.56489,4.70807 1.60728,50.64 5.17217,45.93193 2.19194,79.37638 12.01076,78.918 0,0 -2.56277,9.95987 5.78073,10.32728 8.3435,0.36741 12.15522,0.94639 12.80473,-1.35475 0.64951,-2.30114 1.66643,-12.94579 -0.59946,-12.84 0,0 0.141,3.02118 1.08744,-9.13405 0.94644,-12.15523 -1.73353,-69.55756 1.69032,-77.28681 l 13.3894,27.38168 c 0,0 0.59946,12.84 3.14744,18.77656 2.54798,5.93656 7.94651,40.50377 7.94651,40.50377 l -0.50846,5.32232 c 0,0 18.2681,2.17488 18.88234,-0.88156 0.61424,-3.05644 0.40268,-7.5882 -0.42314,-9.06352 -0.82582,-1.47532 -0.82582,-1.47533 0.54372,-4.567 a 9.15592,9.15592 0 0 0 0.40267,-7.5882 c -0.86108,-2.23062 -3.15312,-51.32472 -3.15312,-51.32472 0,0 -4.29631,-59.59769 -13.50088,-62.19572 -9.20457,-2.59803 -61.10828,4.36672 -61.10828,4.36672 z"
       transform="translate(-224,-143.43955)"
       id="path32"
       inkscape:connector-curvature="0" />
    <path
       style="fill:#2f2e41"
       d="m 730.96415,495.65943 -5.54867,10.85621 c 0,0 -9.59986,-2.95805 -7.30611,5.63968 A 151.09772,151.09772 0 0 0 745.66,510.4906 c 0,0 3.847,1.33428 4.4965,-0.96687 0.6495,-2.30115 -2.36428,-10.10831 -4.63016,-10.00252 -2.26588,0.10579 -14.56219,-3.86178 -14.56219,-3.86178 z"
       transform="translate(-224,-143.43955)"
       id="path34"
       inkscape:connector-curvature="0" />
    <path
       style="fill:#2f2e41"
       d="m 774.63015,490.593 c 0,0 -5.40763,13.87739 -3.10649,14.5269 2.30114,0.64951 22.83513,2.7186 24.381,3.40337 1.54587,0.68477 9.13405,1.08744 9.67777,-3.47959 0.54372,-4.56703 -4.05857,-5.866 -4.05857,-5.866 0,0 -8.37875,-1.1227 -10.99726,-8.56985 -2.61851,-7.44715 -15.89645,-0.0148 -15.89645,-0.0148 z"
       transform="translate(-224,-143.43955)"
       id="path36"
       inkscape:connector-curvature="0" />
    <circle
       style="fill:#ffb8b8"
       cx="499.35675"
       cy="89.824898"
       r="15.81446"
       id="circle38" />
    <path
       style="fill:#ffb8b8"
       d="m 715.03334,240.75551 c 0,0 4.1617,21.64084 2.497,25.80254 -1.6647,4.1617 23.30552,-1.66468 23.30552,-1.66468 0,0 -4.994,-21.64084 -4.1617,-26.63488 0.8323,-4.99404 -21.64082,2.49702 -21.64082,2.49702 z"
       transform="translate(-224,-143.43955)"
       id="path40"
       inkscape:connector-curvature="0" />
    <path
       style="fill:#2f2e41"
       d="m 722.87639,213.73132 a 8.93863,8.93863 0 0 0 -3.956,0.17466 10.315,10.315 0 0 0 -2.81141,1.84424 32.90553,32.90553 0 0 1 -4.8069,3.18472 11.216,11.216 0 0 0 -3.74013,2.62176 7.95819,7.95819 0 0 0 -1.05562,1.99817 23.944,23.944 0 0 0 -1.25892,13.03151 5.99,5.99 0 0 0 0.55443,1.78939 c 0.86508,1.59385 2.77576,2.222 4.3853,3.05749 3.05585,1.5863 5.37231,4.25741 7.8787,6.61805 a 15.4025,15.4025 0 0 0 3.11291,2.399 c 3.57571,1.94956 7.9463,1.31355 11.96019,0.62417 a 2.15543,2.15543 0 0 0 2.15117,-2.176 l 3.16829,-14.25008 a 23.24887,23.24887 0 0 0 0.812,-6.48089 c -0.221,-3.45921 -2.0938,-8.251 -4.63253,-10.70821 -2.95805,-2.86304 -7.89487,-3.31863 -11.76148,-3.72798 z"
       transform="translate(-224,-143.43955)"
       id="path42"
       inkscape:connector-curvature="0" />
    <g
       id="g849">
      <path
         inkscape:connector-curvature="0"
         d="M 811.24609,336.43955 V 364.088 H 707.75391 V 338.13 h -3 v 331.30955 h 3 v -59.3125 h 103.49218 v 59.3125 h 3 v -333 z m 0,30.64844 v 45.60742 H 707.75391 V 367.088 Z M 707.75391,509.91123 v -45.60742 h 103.49218 v 45.60742 z m 103.49218,3 v 45.60742 H 707.75391 V 512.91123 Z M 707.75391,461.30381 v -45.6084 h 103.49218 v 45.6084 z m 0,145.82324 v -45.6084 h 103.49218 v 45.6084 z"
         transform="translate(-224,-143.43955)"
         id="path22"
         style="fill:#2f2e41" />
      <path
         inkscape:connector-curvature="0"
         id="path44"
         transform="translate(-224,-143.43955)"
         d="m 711.23457,267.83551 c 0,0 1.18405,-8.28836 8.28837,-8.88039 a 58.57015,58.57015 0 0 0 11.84052,-2.3681 c 0.592,0 8.28837,0.592 11.84053,4.14418 0,0 2.3681,3.55216 3.55215,1.18405 1.18405,-2.36811 1.18406,-3.55216 3.55216,-2.3681 2.3681,1.18406 2.36811,-3.55216 6.51229,-2.96013 4.14418,0.59203 14.80066,27.2332 14.80066,27.2332 l -3.55216,4.14419 c 0,0 -4.73621,31.96941 3.55216,45.586 8.28837,13.61659 11.84052,28.41726 3.55215,31.37739 -8.28837,2.96013 -66.30694,29.60131 -63.93883,13.02458 2.36811,-16.57673 0.592,-42.62589 -1.77608,-43.21792 -2.36808,-0.59203 -15.39268,-47.3621 -15.39268,-47.3621 a 18.38855,18.38855 0 0 1 10.65647,-13.6166 c 9.47242,-4.14417 6.51229,-5.92025 6.51229,-5.92025 z"
         style="fill:#575a88" />
    </g>
    <path
       style="fill:#575a88"
       d="m 753.86046,258.95512 2.96013,-2.3681 c 0,0 5.32824,0 5.92026,-1.18406 0.59202,-1.18406 3.55216,-1.18405 5.92027,-2.3681 2.36811,-1.18405 -0.592,-2.96013 2.3681,-4.14418 2.9601,-1.18405 2.96013,0 2.96013,-2.96014 0,-2.96014 7.69634,-5.92026 8.28837,-9.47242 0.59203,-3.55216 6.51228,-20.12889 6.51228,-20.12889 l 11.2485,3.55216 -2.96014,21.31294 c 0,0 0,10.65648 -5.32823,17.76079 -5.32823,7.10431 -17.16876,24.8651 -23.089,25.45713 -5.92024,0.59203 -14.80067,-25.45713 -14.80067,-25.45713 z"
       transform="translate(-224,-143.43955)"
       id="path46"
       inkscape:connector-curvature="0" />
    <path
       style="fill:#575a88"
       d="m 697.618,284.41225 -3.55216,2.96013 c 0,0 -1.18405,13.02458 -1.18405,13.6166 0,0.59202 1.18405,7.69635 0,8.28837 -1.18405,0.59202 -3.55216,12.43255 -2.96013,13.02458 v 0 1.77607 l -8.28837,13.02457 v 12.43256 l 19.53686,-12.43256 c 0,0 11.2485,-1.18405 9.47242,-11.24849 C 708.86649,315.78964 697.618,284.41225 697.618,284.41225 Z"
       transform="translate(-224,-143.43955)"
       id="path48"
       inkscape:connector-curvature="0" />
    <circle
       style="fill:#9c27b0"
       cx="376"
       cy="405"
       r="11"
       id="circle50" />
    <flowRoot
       xml:space="preserve"
       id="flowRoot864"
       style="font-style:normal;font-weight:normal;font-size:26.66666603px;line-height:1.25;font-family:sans-serif;letter-spacing:0px;word-spacing:0px;fill:#85377d;fill-opacity:1;stroke:none;image-rendering:optimizeSpeed"><flowRegion
         id="flowRegion866"
         style="fill:#85377d"><rect
           id="rect868"
           width="364.069"
           height="138.01309"
           x="53.539558"
           y="31.32436"
           style="fill:#85377d" /></flowRegion><flowPara
         id="flowPara870"
         style="font-size:29.33333397px;fill:#85377d"><flowSpan
   style="font-style:normal;font-variant:normal;font-weight:normal;font-stretch:normal;font-size:29.33333397px;font-family:Kollektif;-inkscape-font-specification:Kollektif;fill:#85377d"
   id="flowSpan872">[User@sulinOS ~]</flowSpan> $</flowPara></flowRoot>  </g>
  <flowRoot
     style="font-style:normal;font-weight:normal;font-size:26.66666603px;line-height:1.25;font-family:sans-serif;letter-spacing:0px;word-spacing:0px;fill:#77216f;fill-opacity:1;stroke:none"
     id="flowRoot882"
     xml:space="preserve"><flowRegion
       style="fill:#77216f"
       id="flowRegion884"><rect
         style="fill:#77216f"
         y="76.535545"
         x="55.919094"
         height="285.54431"
         width="627.00775"
         id="rect886" /></flowRegion><flowPara
       id="flowPara888" /></flowRoot></svg>
